<?xml version="1.0" standalone="no"?>
<!DOCTYPE svg PUBLIC "-//W3C//DTD SVG 20010904//EN"
 "http://www.w3.org/TR/2001/REC-SVG-20010904/DTD/svg10.dtd">
<svg version="1.0" xmlns="http://www.w3.org/2000/svg"
 width="1280.000000pt" height="1280.000000pt" viewBox="0 0 1280.000000 1280.000000"
 preserveAspectRatio="xMidYMid meet">
<g transform="translate(0.000000,1280.000000) scale(0.100000,-0.100000)"
fill="#000000" stroke="none">
<path d="M6140 12143 c-294 -12 -541 -40 -850 -93 -569 -99 -1190 -323 -1701
-615 -503 -288 -896 -601 -1380 -1101 -786 -813 -1293 -1812 -1473 -2899 -63
-383 -80 -610 -80 -1045 1 -380 13 -562 59 -887 165 -1148 669 -2171 1501
-3043 824 -865 1750 -1406 2839 -1659 423 -98 847 -144 1335 -145 1148 -1
2140 279 3066 866 702 446 1381 1127 1833 1841 573 903 853 1898 853 3032 1
962 -190 1799 -592 2590 -263 518 -597 978 -1040 1429 -515 525 -1021 894
-1624 1187 -822 398 -1768 585 -2746 542z m-1750 -2598 c306 -36 679 -158 955
-312 137 -76 329 -205 455 -306 147 -118 375 -333 500 -471 58 -64 110 -116
115 -116 6 0 43 38 83 84 107 123 350 358 480 464 398 324 739 497 1199 608
520 125 1049 64 1525 -177 558 -284 971 -796 1154 -1433 86 -299 119 -551 111
-846 -10 -323 -52 -574 -152 -909 -250 -829 -724 -1558 -1531 -2351 -510 -501
-1053 -916 -1819 -1392 -310 -192 -1017 -588 -1050 -588 -32 0 -576 300 -929
513 -856 514 -1463 982 -2051 1578 -363 368 -611 666 -843 1011 -394 586 -664
1307 -723 1931 -16 176 -7 513 20 684 84 548 305 1008 660 1376 258 267 539
445 876 556 133 44 347 94 445 104 97 10 407 6 520 -8z"/>
<path d="M3457 7303 c-4 -9 7 -1255 18 -2130 l7 -533 216 0 215 0 -8 733 c-4
402 -11 1002 -14 1332 l-6 600 -212 3 c-116 1 -213 -1 -216 -5z"/>
<path d="M4005 6473 c4 -461 11 -1061 14 -1333 l6 -495 214 0 215 0 -3 455
c-1 250 -6 786 -11 1190 -5 404 -10 799 -10 878 l0 142 -216 0 -216 0 7 -837z"/>
<path d="M8340 7058 c-1 -546 23 -2413 30 -2422 5 -4 101 -5 215 -1 l207 8 -7
981 c-4 539 -10 1139 -14 1331 l-6 350 -212 3 -213 2 0 -252z"/>
<path d="M8985 7301 l-100 -6 3 -255 c1 -140 7 -736 13 -1325 5 -588 13 -1073
18 -1078 4 -4 99 -6 212 -5 l204 3 -4 845 c-2 465 -6 1066 -10 1335 l-6 490
-115 1 c-63 0 -160 -2 -215 -5z"/>
<path d="M9470 5975 l0 -605 170 0 170 0 0 188 c0 133 4 192 12 200 7 7 43 12
90 12 l78 0 -2 188 -3 187 -80 3 c-48 2 -82 8 -87 15 -4 7 -8 103 -8 215 l0
202 -170 0 -170 0 0 -605z"/>
<path d="M2980 6387 c0 -129 -4 -187 -12 -195 -7 -7 -42 -12 -85 -12 l-73 0 0
-190 0 -189 83 -3 82 -3 3 -217 2 -218 170 0 170 0 0 605 0 605 -170 0 -170 0
0 -183z"/>
<path d="M4570 5970 l0 -190 1828 2 1827 3 0 185 0 185 -1827 3 -1828 2 0
-190z"/>
</g>
</svg>
